{
    "asset" : {
        "generator" : "Khronos glTF Blender I/O v1.3.48",
        "version" : "2.0"
    },
    "scene" : 0,
    "scenes" : [
        {
            "name" : "Scene",
            "nodes" : [
                0
            ]
        }
    ],
    "nodes" : [
        {
            "mesh" : 0,
            "name" : "Cylinder.001",
            "scale" : [
                0.20827507972717285,
                11.807788848876953,
                0.20827507972717285
            ],
            "translation" : [
                -3,
                0,
                -8
            ]
        }
    ],
    "materials" : [
        {
            "doubleSided" : true,
            "emissiveFactor" : [
                0,
                0,
                0
            ],
            "name" : "Material.001",
            "pbrMetallicRoughness" : {
                "baseColorTexture" : {
                    "index" : 0,
                    "texCoord" : 0
                },
                "metallicFactor" : 0,
                "roughnessFactor" : 0.5
            }
        }
    ],
    "meshes" : [
        {
            "name" : "Cylinder.001",
            "primitives" : [
                {
                    "attributes" : {
                        "POSITION" : 0,
                        "NORMAL" : 1,
                        "TEXCOORD_0" : 2
                    },
                    "indices" : 3,
                    "material" : 0
                }
            ]
        }
    ],
    "textures" : [
        {
            "source" : 0
        }
    ],
    "images" : [
        {
            "bufferView" : 4,
            "mimeType" : "image/jpeg",
            "name" : "castIron"
        }
    ],
    "accessors" : [
        {
            "bufferView" : 0,
            "componentType" : 5126,
            "count" : 2328,
            "max" : [
                30.090242385864258,
                1.0652412176132202,
                31.206071853637695
            ],
            "min" : [
                -1.2821884155273438,
                -1,
                -1.6293354034423828
            ],
            "type" : "VEC3"
        },
        {
            "bufferView" : 1,
            "componentType" : 5126,
            "count" : 2328,
            "type" : "VEC3"
        },
        {
            "bufferView" : 2,
            "componentType" : 5126,
            "count" : 2328,
            "type" : "VEC2"
        },
        {
            "bufferView" : 3,
            "componentType" : 5123,
            "count" : 4500,
            "type" : "SCALAR"
        }
    ],
    "bufferViews" : [
        {
            "buffer" : 0,
            "byteLength" : 27936,
            "byteOffset" : 0
        },
        {
            "buffer" : 0,
            "byteLength" : 27936,
            "byteOffset" : 27936
        },
        {
            "buffer" : 0,
            "byteLength" : 18624,
            "byteOffset" : 55872
        },
        {
            "buffer" : 0,
            "byteLength" : 9000,
            "byteOffset" : 74496
        },
        {
            "buffer" : 0,
            "byteLength" : 65667,
            "byteOffset" : 83496
        }
    ],
    "buffers" : [
        {
            "byteLength" : 149164,
            "uri" : "data:application/octet-stream;base64,"
        }
    ]
}
