{
    "asset" : {
        "generator" : "Khronos glTF Blender I/O v1.3.48",
        "version" : "2.0"
    },
    "scene" : 0,
    "scenes" : [
        {
            "name" : "Scene",
            "nodes" : [
                0,
                1,
                2
            ]
        }
    ],
    "nodes" : [
        {
            "mesh" : 0,
            "name" : "Cylinder",
            "rotation" : [
                0,
                0,
                -0.7071067690849304,
                0.7071068286895752
            ],
            "scale" : [
                0.47074049711227417,
                0.47074049711227417,
                0.47074049711227417
            ]
        },
        {
            "mesh" : 1,
            "name" : "Torus",
            "rotation" : [
                0.7071068286895752,
                0,
                0,
                0.7071068286895752
            ],
            "scale" : [
                1.389915943145752,
                1.389915943145752,
                1.389915943145752
            ],
            "translation" : [
                -3.8535947799682617,
                0,
                0
            ]
        },
        {
            "mesh" : 2,
            "name" : "Cube",
            "rotation" : [
                0.3826834559440613,
                0,
                0,
                0.9238795042037964
            ],
            "scale" : [
                0.810690701007843,
                0.8106906414031982,
                0.8106906414031982
            ],
            "translation" : [
                4.435784339904785,
                -0.03420567512512207,
                0
            ]
        }
    ],
    "materials" : [
        {
            "doubleSided" : true,
            "emissiveFactor" : [
                0,
                0,
                0
            ],
            "name" : "Material.003",
            "pbrMetallicRoughness" : {
                "baseColorTexture" : {
                    "index" : 0,
                    "texCoord" : 0
                },
                "metallicFactor" : 1,
                "roughnessFactor" : 0.9682273864746094
            }
        }
    ],
    "meshes" : [
        {
            "name" : "Cylinder.038",
            "primitives" : [
                {
                    "attributes" : {
                        "POSITION" : 0,
                        "NORMAL" : 1,
                        "TEXCOORD_0" : 2
                    },
                    "indices" : 3,
                    "material" : 0
                }
            ]
        },
        {
            "name" : "Torus",
            "primitives" : [
                {
                    "attributes" : {
                        "POSITION" : 4,
                        "NORMAL" : 5,
                        "TEXCOORD_0" : 6
                    },
                    "indices" : 7,
                    "material" : 0
                }
            ]
        },
        {
            "name" : "Cube",
            "primitives" : [
                {
                    "attributes" : {
                        "POSITION" : 8,
                        "NORMAL" : 9,
                        "TEXCOORD_0" : 10
                    },
                    "indices" : 11,
                    "material" : 0
                }
            ]
        }
    ],
    "textures" : [
        {
            "source" : 0
        }
    ],
    "images" : [
        {
            "bufferView" : 4,
            "mimeType" : "image/jpeg",
            "name" : "brass"
        }
    ],
    "accessors" : [
        {
            "bufferView" : 0,
            "componentType" : 5126,
            "count" : 702,
            "max" : [
                1.000000238418579,
                11.62238597869873,
                1
            ],
            "min" : [
                -1.0000007152557373,
                -5.269281387329102,
                -1
            ],
            "type" : "VEC3"
        },
        {
            "bufferView" : 1,
            "componentType" : 5126,
            "count" : 702,
            "type" : "VEC3"
        },
        {
            "bufferView" : 2,
            "componentType" : 5126,
            "count" : 702,
            "type" : "VEC2"
        },
        {
            "bufferView" : 3,
            "componentType" : 5123,
            "count" : 1140,
            "type" : "SCALAR"
        },
        {
            "bufferView" : 5,
            "componentType" : 5126,
            "count" : 2304,
            "max" : [
                1.25,
                0.25,
                1.25
            ],
            "min" : [
                -1.25,
                -0.25,
                -1.25
            ],
            "type" : "VEC3"
        },
        {
            "bufferView" : 6,
            "componentType" : 5126,
            "count" : 2304,
            "type" : "VEC3"
        },
        {
            "bufferView" : 7,
            "componentType" : 5126,
            "count" : 2304,
            "type" : "VEC2"
        },
        {
            "bufferView" : 8,
            "componentType" : 5123,
            "count" : 3456,
            "type" : "SCALAR"
        },
        {
            "bufferView" : 9,
            "componentType" : 5126,
            "count" : 24,
            "max" : [
                1,
                1,
                1
            ],
            "min" : [
                -1,
                -1,
                -1
            ],
            "type" : "VEC3"
        },
        {
            "bufferView" : 10,
            "componentType" : 5126,
            "count" : 24,
            "type" : "VEC3"
        },
        {
            "bufferView" : 11,
            "componentType" : 5126,
            "count" : 24,
            "type" : "VEC2"
        },
        {
            "bufferView" : 12,
            "componentType" : 5123,
            "count" : 36,
            "type" : "SCALAR"
        }
    ],
    "bufferViews" : [
        {
            "buffer" : 0,
            "byteLength" : 8424,
            "byteOffset" : 0
        },
        {
            "buffer" : 0,
            "byteLength" : 8424,
            "byteOffset" : 8424
        },
        {
            "buffer" : 0,
            "byteLength" : 5616,
            "byteOffset" : 16848
        },
        {
            "buffer" : 0,
            "byteLength" : 2280,
            "byteOffset" : 22464
        },
        {
            "buffer" : 0,
            "byteLength" : 32457,
            "byteOffset" : 24744
        },
        {
            "buffer" : 0,
            "byteLength" : 27648,
            "byteOffset" : 57204
        },
        {
            "buffer" : 0,
            "byteLength" : 27648,
            "byteOffset" : 84852
        },
        {
            "buffer" : 0,
            "byteLength" : 18432,
            "byteOffset" : 112500
        },
        {
            "buffer" : 0,
            "byteLength" : 6912,
            "byteOffset" : 130932
        },
        {
            "buffer" : 0,
            "byteLength" : 288,
            "byteOffset" : 137844
        },
        {
            "buffer" : 0,
            "byteLength" : 288,
            "byteOffset" : 138132
        },
        {
            "buffer" : 0,
            "byteLength" : 192,
            "byteOffset" : 138420
        },
        {
            "buffer" : 0,
            "byteLength" : 72,
            "byteOffset" : 138612
        }
    ],
    "buffers" : [
        {
            "byteLength" : 138684,
            "uri" : "data:application/octet-stream;base64,"
        }
    ]
}
