{
    "asset" : {
        "generator" : "Khronos glTF Blender I/O v1.3.48",
        "version" : "2.0"
    },
    "scene" : 0,
    "scenes" : [
        {
            "name" : "Scene",
            "nodes" : [
                0
            ]
        }
    ],
    "nodes" : [
        {
            "mesh" : 0,
            "name" : "Cube",
            "scale" : [
                1.5330138206481934,
                -4.686805248260498,
                -3.317922830581665
            ],
            "translation" : [
                0,
                4.584887981414795,
                0
            ]
        }
    ],
    "materials" : [
        {
            "doubleSided" : true,
            "emissiveFactor" : [
                0,
                0,
                0
            ],
            "name" : "Material",
            "pbrMetallicRoughness" : {
                "baseColorFactor" : [
                    0,
                    0,
                    0,
                    1
                ],
                "metallicFactor" : 0,
                "roughnessFactor" : 0.4000000059604645
            }
        },
        {
            "doubleSided" : true,
            "emissiveFactor" : [
                0,
                0,
                0
            ],
            "name" : "Material.003",
            "pbrMetallicRoughness" : {
                "baseColorTexture" : {
                    "index" : 0,
                    "texCoord" : 0
                },
                "metallicFactor" : 0,
                "roughnessFactor" : 0.5
            }
        }
    ],
    "meshes" : [
        {
            "name" : "Cube",
            "primitives" : [
                {
                    "attributes" : {
                        "POSITION" : 0,
                        "NORMAL" : 1,
                        "TEXCOORD_0" : 2
                    },
                    "indices" : 3,
                    "material" : 0
                },
                {
                    "attributes" : {
                        "POSITION" : 4,
                        "NORMAL" : 5,
                        "TEXCOORD_0" : 6
                    },
                    "indices" : 7,
                    "material" : 1
                }
            ]
        }
    ],
    "textures" : [
        {
            "source" : 0
        }
    ],
    "images" : [
        {
            "bufferView" : 8,
            "mimeType" : "image/jpeg",
            "name" : "alu"
        }
    ],
    "accessors" : [
        {
            "bufferView" : 0,
            "componentType" : 5126,
            "count" : 98,
            "max" : [
                0.7434942722320557,
                -0.5254220962524414,
                0.6004817485809326
            ],
            "min" : [
                -0.2780483365058899,
                -0.904800295829773,
                -0.577477216720581
            ],
            "type" : "VEC3"
        },
        {
            "bufferView" : 1,
            "componentType" : 5126,
            "count" : 98,
            "type" : "VEC3"
        },
        {
            "bufferView" : 2,
            "componentType" : 5126,
            "count" : 98,
            "type" : "VEC2"
        },
        {
            "bufferView" : 3,
            "componentType" : 5123,
            "count" : 150,
            "type" : "SCALAR"
        },
        {
            "bufferView" : 4,
            "componentType" : 5126,
            "count" : 48,
            "max" : [
                1,
                1,
                1
            ],
            "min" : [
                -1,
                -1,
                -1
            ],
            "type" : "VEC3"
        },
        {
            "bufferView" : 5,
            "componentType" : 5126,
            "count" : 48,
            "type" : "VEC3"
        },
        {
            "bufferView" : 6,
            "componentType" : 5126,
            "count" : 48,
            "type" : "VEC2"
        },
        {
            "bufferView" : 7,
            "componentType" : 5123,
            "count" : 96,
            "type" : "SCALAR"
        }
    ],
    "bufferViews" : [
        {
            "buffer" : 0,
            "byteLength" : 1176,
            "byteOffset" : 0
        },
        {
            "buffer" : 0,
            "byteLength" : 1176,
            "byteOffset" : 1176
        },
        {
            "buffer" : 0,
            "byteLength" : 784,
            "byteOffset" : 2352
        },
        {
            "buffer" : 0,
            "byteLength" : 300,
            "byteOffset" : 3136
        },
        {
            "buffer" : 0,
            "byteLength" : 576,
            "byteOffset" : 3436
        },
        {
            "buffer" : 0,
            "byteLength" : 576,
            "byteOffset" : 4012
        },
        {
            "buffer" : 0,
            "byteLength" : 384,
            "byteOffset" : 4588
        },
        {
            "buffer" : 0,
            "byteLength" : 192,
            "byteOffset" : 4972
        },
        {
            "buffer" : 0,
            "byteLength" : 1138539,
            "byteOffset" : 5164
        }
    ],
    "buffers" : [
        {
            "byteLength" : 1143704,
            "uri" : "data:application/octet-stream;base64,"
        }
    ]
}
