{
    "asset" : {
        "generator" : "Khronos glTF Blender I/O v1.3.48",
        "version" : "2.0"
    },
    "scene" : 0,
    "scenes" : [
        {
            "name" : "Scene",
            "nodes" : [
                3,
                4
            ]
        }
    ],
    "nodes" : [
        {
            "mesh" : 0,
            "name" : "BezierCurve.001",
            "rotation" : [
                0,
                0.6976944804191589,
                0,
                0.7163954377174377
            ],
            "scale" : [
                0.8501448035240173,
                4.203860759735107,
                0.8501448035240173
            ],
            "translation" : [
                0,
                -1.4529647827148438,
                -0.2310929149389267
            ]
        },
        {
            "mesh" : 1,
            "name" : "Cube.069",
            "scale" : [
                0.16867995262145996,
                5.262313365936279,
                0.91371089220047
            ],
            "translation" : [
                1.1467244625091553,
                4.909330368041992,
                0
            ]
        },
        {
            "mesh" : 2,
            "name" : "Cylinder.002",
            "scale" : [
                0.2341495007276535,
                0.7521460652351379,
                0.2341495007276535
            ],
            "translation" : [
                0,
                -1.0208806991577148,
                0
            ]
        },
        {
            "children" : [
                0,
                1,
                2
            ],
            "mesh" : 3,
            "name" : "Chair",
            "scale" : [
                0.7502878904342651,
                0.15173032879829407,
                0.7502878904342651
            ],
            "translation" : [
                0,
                1.242766261100769,
                0
            ]
        },
        {
            "name" : "Camera",
            "rotation" : [
                0.20697471499443054,
                -0.761849045753479,
                0.5398472547531128,
                0.29208287596702576
            ],
            "translation" : [
                -4.049716949462891,
                3.5079829692840576,
                -4.701354026794434
            ]
        }
    ],
    "materials" : [
        {
            "doubleSided" : true,
            "emissiveFactor" : [
                0,
                0,
                0
            ],
            "name" : "Metal",
            "pbrMetallicRoughness" : {
                "baseColorFactor" : [
                    0,
                    0,
                    0,
                    1
                ],
                "metallicFactor" : 0,
                "roughnessFactor" : 0.5
            }
        },
        {
            "doubleSided" : true,
            "emissiveFactor" : [
                0,
                0,
                0
            ],
            "name" : "Chair",
            "pbrMetallicRoughness" : {
                "baseColorTexture" : {
                    "index" : 0,
                    "texCoord" : 0
                },
                "metallicFactor" : 0,
                "roughnessFactor" : 0.8909090757369995
            }
        },
        {
            "doubleSided" : true,
            "emissiveFactor" : [
                0,
                0,
                0
            ],
            "name" : "Steel Black Polished",
            "pbrMetallicRoughness" : {
                "baseColorFactor" : [
                    0.00888790749013424,
                    0.00888790749013424,
                    0.00888790749013424,
                    1
                ],
                "metallicFactor" : 0,
                "roughnessFactor" : 0.47727274894714355
            }
        },
        {
            "doubleSided" : true,
            "emissiveFactor" : [
                0,
                0,
                0
            ],
            "name" : "Steel White",
            "pbrMetallicRoughness" : {
                "baseColorFactor" : [
                    0.800000011920929,
                    0.800000011920929,
                    0.800000011920929,
                    1
                ],
                "metallicFactor" : 1,
                "roughnessFactor" : 0.5
            }
        }
    ],
    "meshes" : [
        {
            "name" : "BezierCurve.000",
            "primitives" : [
                {
                    "attributes" : {
                        "POSITION" : 0,
                        "NORMAL" : 1,
                        "TEXCOORD_0" : 2
                    },
                    "indices" : 3,
                    "material" : 0
                }
            ]
        },
        {
            "name" : "Cube.093",
            "primitives" : [
                {
                    "attributes" : {
                        "POSITION" : 4,
                        "NORMAL" : 5,
                        "TEXCOORD_0" : 6
                    },
                    "indices" : 7,
                    "material" : 1
                }
            ]
        },
        {
            "name" : "Cylinder.003",
            "primitives" : [
                {
                    "attributes" : {
                        "POSITION" : 8,
                        "NORMAL" : 9,
                        "TEXCOORD_0" : 10
                    },
                    "indices" : 11,
                    "material" : 2
                },
                {
                    "attributes" : {
                        "POSITION" : 12,
                        "NORMAL" : 13,
                        "TEXCOORD_0" : 14
                    },
                    "indices" : 15,
                    "material" : 3
                }
            ]
        },
        {
            "name" : "Cube.094",
            "primitives" : [
                {
                    "attributes" : {
                        "POSITION" : 16,
                        "NORMAL" : 17,
                        "TEXCOORD_0" : 18
                    },
                    "indices" : 19,
                    "material" : 1
                }
            ]
        }
    ],
    "textures" : [
        {
            "source" : 0
        }
    ],
    "images" : [
        {
            "bufferView" : 8,
            "mimeType" : "image/png",
            "name" : "Chair"
        }
    ],
    "accessors" : [
        {
            "bufferView" : 0,
            "componentType" : 5126,
            "count" : 367,
            "max" : [
                1.0537726879119873,
                0.03365590050816536,
                0.558954119682312
            ],
            "min" : [
                -0.033777885138988495,
                -0.23996886610984802,
                -0.016910584643483162
            ],
            "type" : "VEC3"
        },
        {
            "bufferView" : 1,
            "componentType" : 5126,
            "count" : 367,
            "type" : "VEC3"
        },
        {
            "bufferView" : 2,
            "componentType" : 5126,
            "count" : 367,
            "type" : "VEC2"
        },
        {
            "bufferView" : 3,
            "componentType" : 5123,
            "count" : 1836,
            "type" : "SCALAR"
        },
        {
            "bufferView" : 4,
            "componentType" : 5126,
            "count" : 35,
            "max" : [
                3.83585786819458,
                1,
                1.0016252994537354
            ],
            "min" : [
                -1.078185796737671,
                -1.4302910566329956,
                -1
            ],
            "type" : "VEC3"
        },
        {
            "bufferView" : 5,
            "componentType" : 5126,
            "count" : 35,
            "type" : "VEC3"
        },
        {
            "bufferView" : 6,
            "componentType" : 5126,
            "count" : 35,
            "type" : "VEC2"
        },
        {
            "bufferView" : 7,
            "componentType" : 5123,
            "count" : 132,
            "type" : "SCALAR"
        },
        {
            "bufferView" : 9,
            "componentType" : 5126,
            "count" : 10177,
            "max" : [
                5.8195576667785645,
                1,
                6.694283962249756
            ],
            "min" : [
                -6.916337013244629,
                -9.462413787841797,
                -6.695655345916748
            ],
            "type" : "VEC3"
        },
        {
            "bufferView" : 10,
            "componentType" : 5126,
            "count" : 10177,
            "type" : "VEC3"
        },
        {
            "bufferView" : 11,
            "componentType" : 5126,
            "count" : 10177,
            "type" : "VEC2"
        },
        {
            "bufferView" : 12,
            "componentType" : 5123,
            "count" : 50868,
            "type" : "SCALAR"
        },
        {
            "bufferView" : 13,
            "componentType" : 5126,
            "count" : 66,
            "max" : [
                0.5075477361679077,
                -1.0606027841567993,
                0.5075474977493286
            ],
            "min" : [
                -0.5075475573539734,
                -3.3360018730163574,
                -0.5075477957725525
            ],
            "type" : "VEC3"
        },
        {
            "bufferView" : 14,
            "componentType" : 5126,
            "count" : 66,
            "type" : "VEC3"
        },
        {
            "bufferView" : 15,
            "componentType" : 5126,
            "count" : 66,
            "type" : "VEC2"
        },
        {
            "bufferView" : 16,
            "componentType" : 5123,
            "count" : 192,
            "type" : "SCALAR"
        },
        {
            "bufferView" : 17,
            "componentType" : 5126,
            "count" : 28,
            "max" : [
                1,
                1,
                1
            ],
            "min" : [
                -1.2857964038848877,
                -1,
                -1
            ],
            "type" : "VEC3"
        },
        {
            "bufferView" : 18,
            "componentType" : 5126,
            "count" : 28,
            "type" : "VEC3"
        },
        {
            "bufferView" : 19,
            "componentType" : 5126,
            "count" : 28,
            "type" : "VEC2"
        },
        {
            "bufferView" : 20,
            "componentType" : 5123,
            "count" : 84,
            "type" : "SCALAR"
        }
    ],
    "bufferViews" : [
        {
            "buffer" : 0,
            "byteLength" : 4404,
            "byteOffset" : 0
        },
        {
            "buffer" : 0,
            "byteLength" : 4404,
            "byteOffset" : 4404
        },
        {
            "buffer" : 0,
            "byteLength" : 2936,
            "byteOffset" : 8808
        },
        {
            "buffer" : 0,
            "byteLength" : 3672,
            "byteOffset" : 11744
        },
        {
            "buffer" : 0,
            "byteLength" : 420,
            "byteOffset" : 15416
        },
        {
            "buffer" : 0,
            "byteLength" : 420,
            "byteOffset" : 15836
        },
        {
            "buffer" : 0,
            "byteLength" : 280,
            "byteOffset" : 16256
        },
        {
            "buffer" : 0,
            "byteLength" : 264,
            "byteOffset" : 16536
        },
        {
            "buffer" : 0,
            "byteLength" : 100544,
            "byteOffset" : 16800
        },
        {
            "buffer" : 0,
            "byteLength" : 122124,
            "byteOffset" : 117344
        },
        {
            "buffer" : 0,
            "byteLength" : 122124,
            "byteOffset" : 239468
        },
        {
            "buffer" : 0,
            "byteLength" : 81416,
            "byteOffset" : 361592
        },
        {
            "buffer" : 0,
            "byteLength" : 101736,
            "byteOffset" : 443008
        },
        {
            "buffer" : 0,
            "byteLength" : 792,
            "byteOffset" : 544744
        },
        {
            "buffer" : 0,
            "byteLength" : 792,
            "byteOffset" : 545536
        },
        {
            "buffer" : 0,
            "byteLength" : 528,
            "byteOffset" : 546328
        },
        {
            "buffer" : 0,
            "byteLength" : 384,
            "byteOffset" : 546856
        },
        {
            "buffer" : 0,
            "byteLength" : 336,
            "byteOffset" : 547240
        },
        {
            "buffer" : 0,
            "byteLength" : 336,
            "byteOffset" : 547576
        },
        {
            "buffer" : 0,
            "byteLength" : 224,
            "byteOffset" : 547912
        },
        {
            "buffer" : 0,
            "byteLength" : 168,
            "byteOffset" : 548136
        }
    ],
    "buffers" : [
        {
            "byteLength" : 548304,
            "uri" : "data:application/octet-stream;base64,"
        }
    ]
}
