# Blender v2.80 (sub 75) OBJ File: 'pentagonkey.blend'
# www.blender.org
mtllib pentagonkey.mtl
o Torus
v -0.000000 0.000000 -1.250000
v -0.000000 0.125000 -1.216506
v -0.000000 0.216506 -1.125000
v -0.000000 0.250000 -1.000000
v -0.000000 0.216506 -0.875000
v -0.000000 0.125000 -0.783494
v -0.000000 0.000000 -0.750000
v -0.000000 -0.125000 -0.783494
v -0.000000 -0.216506 -0.875000
v -0.000000 -0.250000 -1.000000
v -0.000000 -0.216506 -1.125000
v -0.000000 -0.125000 -1.216506
v -1.188821 0.000000 -0.386271
v -1.156966 0.125000 -0.375921
v -1.069939 0.216506 -0.347644
v -0.951056 0.250000 -0.309017
v -0.832174 0.216506 -0.270390
v -0.745147 0.125000 -0.242113
v -0.713292 0.000000 -0.231763
v -0.745147 -0.125000 -0.242113
v -0.832174 -0.216506 -0.270390
v -0.951056 -0.250000 -0.309017
v -1.069939 -0.216506 -0.347644
v -1.156966 -0.125000 -0.375921
v -0.734731 0.000000 1.011271
v -0.715044 0.125000 0.984175
v -0.661258 0.216506 0.910144
v -0.587785 0.250000 0.809017
v -0.514312 0.216506 0.707890
v -0.460526 0.125000 0.633860
v -0.440839 0.000000 0.606763
v -0.460526 -0.125000 0.633860
v -0.514312 -0.216506 0.707890
v -0.587785 -0.250000 0.809017
v -0.661258 -0.216506 0.910144
v -0.715044 -0.125000 0.984175
v 0.734731 0.000000 1.011271
v 0.715044 0.125000 0.984174
v 0.661258 0.216506 0.910144
v 0.587785 0.250000 0.809017
v 0.514312 0.216506 0.707890
v 0.460526 0.125000 0.633860
v 0.440839 0.000000 0.606763
v 0.460526 -0.125000 0.633860
v 0.514312 -0.216506 0.707890
v 0.587785 -0.250000 0.809017
v 0.661258 -0.216506 0.910144
v 0.715044 -0.125000 0.984174
v 1.188821 0.000000 -0.386272
v 1.156966 0.125000 -0.375921
v 1.069939 0.216506 -0.347644
v 0.951056 0.250000 -0.309017
v 0.832174 0.216506 -0.270390
v 0.745147 0.125000 -0.242113
v 0.713292 0.000000 -0.231763
v 0.745147 -0.125000 -0.242113
v 0.832174 -0.216506 -0.270390
v 0.951056 -0.250000 -0.309017
v 1.069939 -0.216506 -0.347644
v 1.156966 -0.125000 -0.375921
v 0.000000 0.125000 0.984175
v 0.000000 0.216506 0.910144
v 0.000000 0.250000 0.809017
v 0.000000 0.216506 0.707890
v 0.000000 0.125000 0.633860
v 0.000000 0.000000 0.606763
v 0.000000 -0.125000 0.633860
v 0.000000 -0.216506 0.707890
v 0.000000 -0.250000 0.809017
v 0.000000 -0.216506 0.910144
v 0.000000 -0.125000 0.984175
v 0.367366 0.000000 1.011271
v 0.357522 0.125000 0.984175
v 0.330629 0.216506 0.910144
v 0.293893 0.250000 0.809017
v 0.257156 0.216506 0.707890
v 0.230263 0.125000 0.633860
v 0.220419 0.000000 0.606763
v 0.230263 -0.125000 0.633860
v 0.257156 -0.216506 0.707890
v 0.293893 -0.250000 0.809017
v 0.330629 -0.216506 0.910144
v 0.357522 -0.125000 0.984175
v -0.367366 0.000000 1.011271
v -0.357522 0.125000 0.984175
v -0.330629 0.216506 0.910144
v -0.293892 0.250000 0.809017
v -0.257156 0.216506 0.707890
v -0.230263 0.125000 0.633860
v -0.220419 0.000000 0.606763
v -0.230263 -0.125000 0.633860
v -0.257156 -0.216506 0.707890
v -0.293892 -0.250000 0.809017
v -0.330629 -0.216506 0.910144
v -0.357522 -0.125000 0.984175
v 0.183683 0.000000 1.011271
v 0.178761 0.125000 0.984175
v 0.165315 0.216506 0.910144
v 0.146946 0.250000 0.809017
v 0.128578 0.216506 0.707890
v 0.115131 0.125000 0.633860
v 0.110210 0.000000 0.606763
v 0.115131 -0.125000 0.633860
v 0.128578 -0.216506 0.707890
v 0.146946 -0.250000 0.809017
v 0.165315 -0.216506 0.910144
v 0.178761 -0.125000 0.984175
v -0.183683 0.000000 1.011271
v -0.178761 0.125000 0.984175
v -0.165314 0.216506 0.910144
v -0.146946 0.250000 0.809017
v -0.128578 0.216506 0.707890
v -0.115131 0.125000 0.633860
v -0.110210 0.000000 0.606763
v -0.115131 -0.125000 0.633860
v -0.128578 -0.216506 0.707890
v -0.146946 -0.250000 0.809017
v -0.165314 -0.216506 0.910144
v -0.178761 -0.125000 0.984175
v -0.183633 0.000000 1.011271
v 0.000000 -0.124951 0.984185
v 0.183633 0.000000 1.011271
v 0.000000 0.124951 0.984185
v -0.125934 0.085691 0.997729
v 0.125934 -0.085691 0.997729
v -0.125934 -0.085691 0.997729
v 0.125934 0.085691 0.997729
v -0.125934 0.085691 3.885582
v -0.183633 -0.000000 3.899125
v -0.125934 -0.085691 3.885582
v 0.000000 -0.124951 3.872039
v 0.125934 -0.085691 3.885582
v 0.183633 -0.000000 3.899125
v 0.125934 0.085691 3.885582
v 0.000000 0.124951 3.872039
v -0.125934 0.085691 4.856920
v -0.183633 -0.000000 4.870462
v -0.125934 -0.085691 4.856920
v 0.000000 -0.124951 4.843376
v 0.125934 -0.085691 4.856920
v 0.183633 -0.000000 4.870462
v 0.125934 0.085691 4.856920
v 0.000000 0.124951 4.843376
v 0.000000 0.500000 5.000000
v -0.475528 0.154509 5.000000
v -0.293892 -0.404509 5.000000
v 0.293893 -0.404509 5.000000
v 0.475528 0.154509 5.000000
v -0.125934 0.085691 5.093579
v -0.183633 -0.000000 5.107122
v -0.125934 -0.085691 5.093579
v 0.000000 -0.124951 5.080036
v 0.125934 -0.085691 5.093579
v 0.183633 -0.000000 5.107122
v 0.125934 0.085691 5.093579
v 0.000000 0.124951 5.080036
v 0.000000 -0.000000 5.093579
v -0.475528 0.154509 4.667640
v 0.000000 0.500000 4.667640
v -0.293892 -0.404509 4.667640
v 0.293893 -0.404509 4.667640
v 0.475528 0.154509 4.667640
vt 0.600000 0.500000
vt 0.800000 0.500000
vt 0.800000 0.583333
vt 0.600000 0.583333
vt 0.800000 0.666667
vt 0.600000 0.666667
vt 0.800000 0.750000
vt 0.600000 0.750000
vt 0.800000 0.833333
vt 0.600000 0.833333
vt 0.800000 0.916667
vt 0.600000 0.916667
vt 0.800000 1.000000
vt 0.600000 1.000000
vt 0.600000 0.000000
vt 0.800000 0.000000
vt 0.800000 0.083333
vt 0.600000 0.083333
vt 0.800000 0.166667
vt 0.600000 0.166667
vt 0.800000 0.250000
vt 0.600000 0.250000
vt 0.800000 0.333333
vt 0.600000 0.333333
vt 0.800000 0.416667
vt 0.600000 0.416667
vt 1.000000 0.500000
vt 1.000000 0.583333
vt 1.000000 0.666667
vt 1.000000 0.750000
vt 1.000000 0.833333
vt 1.000000 0.916667
vt 1.000000 1.000000
vt 1.000000 0.000000
vt 1.000000 0.083333
vt 1.000000 0.166667
vt 1.000000 0.250000
vt 1.000000 0.333333
vt 1.000000 0.416667
vt 0.150000 0.500000
vt 0.200000 0.500000
vt 0.200000 0.583333
vt 0.150000 0.583333
vt 0.200000 0.666667
vt 0.150000 0.666667
vt 0.200000 0.750000
vt 0.150000 0.750000
vt 0.200000 0.833333
vt 0.150000 0.833333
vt 0.200000 0.916667
vt 0.150000 0.916667
vt 0.200000 1.000000
vt 0.150000 1.000000
vt 0.150000 0.000000
vt 0.200000 0.000000
vt 0.200000 0.083333
vt 0.150000 0.083333
vt 0.200000 0.166667
vt 0.150000 0.166667
vt 0.200000 0.250000
vt 0.150000 0.250000
vt 0.200000 0.333333
vt 0.150000 0.333333
vt 0.200000 0.416667
vt 0.150000 0.416667
vt 0.400000 0.500000
vt 0.400000 0.583333
vt 0.400000 0.666667
vt 0.400000 0.750000
vt 0.400000 0.833333
vt 0.400000 0.916667
vt 0.400000 1.000000
vt 0.400000 0.000000
vt 0.400000 0.083333
vt 0.400000 0.166667
vt 0.400000 0.250000
vt 0.400000 0.333333
vt 0.400000 0.416667
vt 0.100000 0.416667
vt 0.125000 0.416667
vt 0.125000 0.500000
vt 0.124993 0.500000
vt 0.112497 0.458350
vt 0.100000 0.416699
vt 0.075000 0.333333
vt 0.100000 0.333333
vt 0.075000 0.416667
vt 0.075000 0.250000
vt 0.100000 0.250000
vt 0.075000 0.166667
vt 0.100000 0.166667
vt 0.075000 0.083333
vt 0.100000 0.083333
vt 0.075000 0.000000
vt 0.100000 0.000000
vt 0.075000 0.916667
vt 0.100000 0.916667
vt 0.100000 1.000000
vt 0.075000 1.000000
vt 0.075000 0.833333
vt 0.100000 0.833333
vt 0.075000 0.750000
vt 0.100000 0.750000
vt 0.075000 0.666667
vt 0.100000 0.666667
vt 0.075000 0.583333
vt 0.100000 0.583333
vt 0.100000 0.583301
vt 0.112497 0.541650
vt 0.125000 0.583333
vt 0.125000 0.333333
vt 0.125000 0.250000
vt 0.125000 0.166667
vt 0.125000 0.083333
vt 0.125000 0.000000
vt 0.125000 0.916667
vt 0.125000 1.000000
vt 0.125000 0.833333
vt 0.125000 0.750000
vt 0.125000 0.666667
vt 0.000000 0.500000
vt 0.050000 0.500000
vt 0.050000 0.583333
vt 0.000000 0.583333
vt 0.050000 0.666667
vt 0.000000 0.666667
vt 0.050000 0.750000
vt 0.000000 0.750000
vt 0.050000 0.833333
vt 0.000000 0.833333
vt 0.050000 0.916667
vt 0.000000 0.916667
vt 0.050000 1.000000
vt 0.000000 1.000000
vt 0.000000 0.000000
vt 0.050000 0.000000
vt 0.050000 0.083333
vt 0.000000 0.083333
vt 0.050000 0.166667
vt 0.000000 0.166667
vt 0.050000 0.250000
vt 0.000000 0.250000
vt 0.050000 0.333333
vt 0.000000 0.333333
vt 0.050000 0.416667
vt 0.000000 0.416667
vt 0.087503 0.458350
vt 0.075007 0.500000
vt 0.075000 0.500000
vt 0.087503 0.541650
vt 0.087503 0.541650
vt 0.100000 0.583301
vt 0.100000 0.416699
vt 0.087503 0.458350
vt 0.112497 0.541650
vt 0.124993 0.500000
vt 0.100000 0.416699
vt 0.087503 0.458350
vt 0.100000 0.583301
vt 0.112497 0.541650
vt 0.112497 0.458350
vt 0.112497 0.458350
vt 0.075007 0.500000
vt 0.075007 0.500000
vt 0.100000 0.416699
vt 0.087503 0.458350
vt 0.100000 0.583301
vt 0.112497 0.541650
vt 0.112497 0.458350
vt 0.075007 0.500000
vt 0.124993 0.500000
vt 0.087503 0.541650
vt 0.000000 0.000000
vt 0.000000 0.000000
vt 0.000000 0.000000
vt 0.000000 0.000000
vt 0.000000 0.000000
vt 0.100000 0.500000
vt 0.124993 0.500000
vt 0.087503 0.541650
vt 0.000000 0.000000
vt 0.000000 0.000000
vt 0.000000 0.000000
vt 0.000000 0.000000
vt 0.000000 0.000000
vn -0.5744 0.2119 -0.7907
vn -0.4570 0.6290 -0.6290
vn -0.1848 0.9493 -0.2544
vn 0.1848 0.9493 0.2544
vn 0.4570 0.6290 0.6290
vn 0.5744 0.2119 0.7907
vn 0.5744 -0.2119 0.7907
vn 0.4570 -0.6290 0.6290
vn 0.1848 -0.9493 0.2544
vn -0.1848 -0.9493 -0.2544
vn -0.4570 -0.6290 -0.6290
vn -0.5744 -0.2119 -0.7907
vn -0.9295 0.2119 0.3020
vn -0.7394 0.6290 0.2402
vn -0.2990 0.9493 0.0972
vn 0.2990 0.9493 -0.0972
vn 0.7394 0.6290 -0.2402
vn 0.9295 0.2119 -0.3020
vn 0.9295 -0.2119 -0.3020
vn 0.7394 -0.6290 -0.2402
vn 0.2990 -0.9493 -0.0972
vn -0.2990 -0.9493 0.0972
vn -0.7394 -0.6290 0.2402
vn -0.9295 -0.2119 0.3020
vn 0.0000 0.2119 0.9773
vn 0.0000 0.6290 0.7774
vn 0.0000 0.9493 0.3144
vn 0.0000 0.9493 -0.3144
vn 0.0000 0.6290 -0.7774
vn 0.0000 0.2119 -0.9773
vn 0.0000 -0.2119 -0.9773
vn 0.0000 -0.6290 -0.7774
vn 0.0000 -0.9493 -0.3144
vn 0.0000 -0.9493 0.3144
vn 0.0000 -0.6290 0.7774
vn 0.0000 -0.2119 0.9773
vn 0.9295 0.2119 0.3020
vn 0.7394 0.6290 0.2402
vn 0.2990 0.9493 0.0972
vn -0.2990 0.9493 -0.0972
vn -0.7394 0.6290 -0.2402
vn -0.9295 0.2119 -0.3020
vn -0.9295 -0.2119 -0.3020
vn -0.7394 -0.6290 -0.2402
vn -0.2990 -0.9493 -0.0972
vn 0.2990 -0.9493 0.0972
vn 0.7394 -0.6290 0.2402
vn 0.9295 -0.2119 0.3020
vn 0.5744 0.2119 -0.7907
vn 0.4570 0.6290 -0.6290
vn 0.1848 0.9493 -0.2544
vn -0.1848 0.9493 0.2544
vn -0.4570 0.6290 0.6290
vn -0.5744 0.2119 0.7907
vn -0.5744 -0.2119 0.7907
vn -0.4570 -0.6290 0.6290
vn -0.1848 -0.9493 0.2544
vn 0.1848 -0.9493 -0.2544
vn 0.4570 -0.6290 -0.6290
vn 0.5744 -0.2119 -0.7907
vn 0.0437 -0.2726 0.9611
vn 0.0437 0.2726 0.9611
vn -0.0437 -0.2726 0.9611
vn -0.2976 0.9547 0.0000
vn -0.0437 0.2726 0.9611
vn -0.2976 -0.9547 0.0000
vn 0.8295 0.5585 -0.0000
vn 0.2976 0.9547 -0.0000
vn 0.2976 -0.9547 -0.0000
vn -0.8295 -0.5585 0.0000
vn 0.8295 -0.5585 -0.0000
vn -0.8295 0.5585 0.0000
vn 0.0000 0.0000 -1.0000
vn -0.0735 0.0000 0.9973
vn 0.0000 -0.1078 0.9942
vn 0.0735 0.0000 0.9973
vn 0.0000 0.1078 0.9942
vn -0.0000 0.0000 1.0000
vn -0.5878 -0.8090 0.0000
vn 0.0000 1.0000 0.0000
vn 0.5878 -0.8090 0.0000
vn -0.9511 0.3090 0.0000
vn 0.9511 0.3090 0.0000
usemtl Material.001
s off
f 1/1/1 13/2/1 14/3/1 2/4/1
f 2/4/2 14/3/2 15/5/2 3/6/2
f 3/6/3 15/5/3 16/7/3 4/8/3
f 4/8/4 16/7/4 17/9/4 5/10/4
f 5/10/5 17/9/5 18/11/5 6/12/5
f 6/12/6 18/11/6 19/13/6 7/14/6
f 7/15/7 19/16/7 20/17/7 8/18/7
f 8/18/8 20/17/8 21/19/8 9/20/8
f 9/20/9 21/19/9 22/21/9 10/22/9
f 10/22/10 22/21/10 23/23/10 11/24/10
f 11/24/11 23/23/11 24/25/11 12/26/11
f 12/26/12 24/25/12 13/2/12 1/1/12
f 13/2/13 25/27/13 26/28/13 14/3/13
f 14/3/14 26/28/14 27/29/14 15/5/14
f 15/5/15 27/29/15 28/30/15 16/7/15
f 16/7/16 28/30/16 29/31/16 17/9/16
f 17/9/17 29/31/17 30/32/17 18/11/17
f 18/11/18 30/32/18 31/33/18 19/13/18
f 19/16/19 31/34/19 32/35/19 20/17/19
f 20/17/20 32/35/20 33/36/20 21/19/20
f 21/19/21 33/36/21 34/37/21 22/21/21
f 22/21/22 34/37/22 35/38/22 23/23/22
f 23/23/23 35/38/23 36/39/23 24/25/23
f 24/25/24 36/39/24 25/27/24 13/2/24
f 72/40/25 37/41/25 38/42/25 73/43/25
f 73/43/26 38/42/26 39/44/26 74/45/26
f 74/45/27 39/44/27 40/46/27 75/47/27
f 75/47/28 40/46/28 41/48/28 76/49/28
f 76/49/29 41/48/29 42/50/29 77/51/29
f 77/51/30 42/50/30 43/52/30 78/53/30
f 78/54/31 43/55/31 44/56/31 79/57/31
f 79/57/32 44/56/32 45/58/32 80/59/32
f 80/59/33 45/58/33 46/60/33 81/61/33
f 81/61/34 46/60/34 47/62/34 82/63/34
f 82/63/35 47/62/35 48/64/35 83/65/35
f 83/65/36 48/64/36 37/41/36 72/40/36
f 37/41/37 49/66/37 50/67/37 38/42/37
f 38/42/38 50/67/38 51/68/38 39/44/38
f 39/44/39 51/68/39 52/69/39 40/46/39
f 40/46/40 52/69/40 53/70/40 41/48/40
f 41/48/41 53/70/41 54/71/41 42/50/41
f 42/50/42 54/71/42 55/72/42 43/52/42
f 43/55/43 55/73/43 56/74/43 44/56/43
f 44/56/44 56/74/44 57/75/44 45/58/44
f 45/58/45 57/75/45 58/76/45 46/60/45
f 46/60/46 58/76/46 59/77/46 47/62/46
f 47/62/47 59/77/47 60/78/47 48/64/47
f 48/64/48 60/78/48 49/66/48 37/41/48
f 49/66/49 1/1/49 2/4/49 50/67/49
f 50/67/50 2/4/50 3/6/50 51/68/50
f 51/68/51 3/6/51 4/8/51 52/69/51
f 52/69/52 4/8/52 5/10/52 53/70/52
f 53/70/53 5/10/53 6/12/53 54/71/53
f 54/71/54 6/12/54 7/14/54 55/72/54
f 55/73/55 7/15/55 8/18/55 56/74/55
f 56/74/56 8/18/56 9/20/56 57/75/56
f 57/75/57 9/20/57 10/22/57 58/76/57
f 58/76/58 10/22/58 11/24/58 59/77/58
f 59/77/59 11/24/59 12/26/59 60/78/59
f 60/78/60 12/26/60 1/1/60 49/66/60
f 71/79/61 107/80/61 96/81/61 122/82/61 125/83/61 121/84/61
f 118/85/35 70/86/35 71/79/35 119/87/35
f 117/88/34 69/89/34 70/86/34 118/85/34
f 116/90/33 68/91/33 69/89/33 117/88/33
f 115/92/32 67/93/32 68/91/32 116/90/32
f 114/94/31 66/95/31 67/93/31 115/92/31
f 113/96/30 65/97/30 66/98/30 114/99/30
f 112/100/29 64/101/29 65/97/29 113/96/29
f 111/102/28 63/103/28 64/101/28 112/100/28
f 110/104/27 62/105/27 63/103/27 111/102/27
f 109/106/26 61/107/26 62/105/26 110/104/26
f 123/108/62 127/109/62 122/82/62 96/81/62 97/110/62 61/107/62
f 107/80/36 83/65/36 72/40/36 96/81/36
f 106/111/35 82/63/35 83/65/35 107/80/35
f 105/112/34 81/61/34 82/63/34 106/111/34
f 104/113/33 80/59/33 81/61/33 105/112/33
f 103/114/32 79/57/32 80/59/32 104/113/32
f 102/115/31 78/54/31 79/57/31 103/114/31
f 101/116/30 77/51/30 78/53/30 102/117/30
f 100/118/29 76/49/29 77/51/29 101/116/29
f 99/119/28 75/47/28 76/49/28 100/118/28
f 98/120/27 74/45/27 75/47/27 99/119/27
f 97/110/26 73/43/26 74/45/26 98/120/26
f 96/81/25 72/40/25 73/43/25 97/110/25
f 25/121/25 84/122/25 85/123/25 26/124/25
f 26/124/26 85/123/26 86/125/26 27/126/26
f 27/126/27 86/125/27 87/127/27 28/128/27
f 28/128/28 87/127/28 88/129/28 29/130/28
f 29/130/29 88/129/29 89/131/29 30/132/29
f 30/132/30 89/131/30 90/133/30 31/134/30
f 31/135/31 90/136/31 91/137/31 32/138/31
f 32/138/32 91/137/32 92/139/32 33/140/32
f 33/140/33 92/139/33 93/141/33 34/142/33
f 34/142/34 93/141/34 94/143/34 35/144/34
f 35/144/35 94/143/35 95/145/35 36/146/35
f 36/146/36 95/145/36 84/122/36 25/121/36
f 119/87/63 71/79/63 121/84/63 126/147/63 120/148/63 108/149/63
f 61/107/26 97/110/26 98/120/26 62/105/26
f 62/105/27 98/120/27 99/119/27 63/103/27
f 63/103/28 99/119/28 100/118/28 64/101/28
f 64/101/29 100/118/29 101/116/29 65/97/29
f 65/97/30 101/116/30 102/117/30 66/98/30
f 66/95/31 102/115/31 103/114/31 67/93/31
f 67/93/32 103/114/32 104/113/32 68/91/32
f 68/91/33 104/113/33 105/112/33 69/89/33
f 69/89/34 105/112/34 106/111/34 70/86/34
f 70/86/35 106/111/35 107/80/35 71/79/35
f 84/122/25 108/149/25 109/106/25 85/123/25
f 85/123/26 109/106/26 110/104/26 86/125/26
f 86/125/27 110/104/27 111/102/27 87/127/27
f 87/127/28 111/102/28 112/100/28 88/129/28
f 88/129/29 112/100/29 113/96/29 89/131/29
f 89/131/30 113/96/30 114/99/30 90/133/30
f 90/136/31 114/94/31 115/92/31 91/137/31
f 91/137/32 115/92/32 116/90/32 92/139/32
f 92/139/33 116/90/33 117/88/33 93/141/33
f 93/141/34 117/88/34 118/85/34 94/143/34
f 94/143/35 118/85/35 119/87/35 95/145/35
f 95/145/36 119/87/36 108/149/36 84/122/36
f 123/108/64 124/150/64 128/151/64 135/152/64
f 108/149/65 120/148/65 124/150/65 123/108/65 61/107/65 109/106/65
f 126/147/66 121/84/66 131/153/66 130/154/66
f 122/82/67 127/109/67 134/155/67 133/156/67
f 127/109/68 123/108/68 135/152/68 134/155/68
f 130/154/66 131/153/66 139/157/66 138/158/66
f 134/155/68 135/152/68 143/159/68 142/160/68
f 131/153/69 132/161/69 140/162/69 139/157/69
f 129/163/70 130/154/70 138/158/70 137/164/70
f 125/83/71 122/82/71 133/156/71 132/161/71
f 120/148/70 126/147/70 130/154/70 129/163/70
f 124/150/72 120/148/72 129/163/72 128/151/72
f 121/84/69 125/83/69 132/161/69 131/153/69
f 138/158/66 139/157/66 152/165/66 151/166/66
f 142/160/68 143/159/68 156/167/68 155/168/68
f 139/157/69 140/162/69 153/169/69 152/165/69
f 137/164/70 138/158/70 151/166/70 150/170/70
f 133/156/67 134/155/67 142/160/67 141/171/67
f 135/152/64 128/151/64 136/172/64 143/159/64
f 132/161/71 133/156/71 141/171/71 140/162/71
f 128/151/72 129/163/72 137/164/72 136/172/72
f 145/173/73 144/174/73 148/175/73 147/176/73 146/177/73
f 157/178/74 153/169/74 154/179/74 155/168/74
f 151/166/75 152/165/75 153/169/75 157/178/75
f 150/170/76 151/166/76 157/178/76 149/180/76
f 149/180/77 157/178/77 155/168/77 156/167/77
f 141/171/67 142/160/67 155/168/67 154/179/67
f 143/159/64 136/172/64 149/180/64 156/167/64
f 140/162/71 141/171/71 154/179/71 153/169/71
f 136/172/72 137/164/72 150/170/72 149/180/72
f 158/181/78 160/182/78 161/183/78 162/184/78 159/185/78
f 148/175/79 144/174/79 159/185/79 162/184/79
f 146/177/80 147/176/80 161/183/80 160/182/80
f 144/174/81 145/173/81 158/181/81 159/185/81
f 147/176/82 148/175/82 162/184/82 161/183/82
f 145/173/83 146/177/83 160/182/83 158/181/83
