{
    "asset" : {
        "generator" : "Khronos glTF Blender I/O v1.3.48",
        "version" : "2.0"
    },
    "scene" : 0,
    "scenes" : [
        {
            "name" : "Scene",
            "nodes" : [
                0,
                1,
                2,
                3,
                4
            ]
        }
    ],
    "nodes" : [
        {
            "mesh" : 0,
            "name" : "Torus",
            "rotation" : [
                0,
                0.7071068286895752,
                0,
                0.7071068286895752
            ]
        },
        {
            "mesh" : 1,
            "name" : "Torus.001",
            "rotation" : [
                0,
                0.7071068286895752,
                0,
                0.7071068286895752
            ]
        },
        {
            "name" : "Circle"
        },
        {
            "name" : "Circle.001"
        },
        {
            "name" : "Circle.002",
            "rotation" : [
                0.7071068286895752,
                0,
                0,
                0.7071068286895752
            ],
            "translation" : [
                0,
                5,
                0
            ]
        }
    ],
    "materials" : [
        {
            "doubleSided" : true,
            "emissiveFactor" : [
                0,
                0,
                0
            ],
            "name" : "Material.001",
            "pbrMetallicRoughness" : {
                "baseColorTexture" : {
                    "index" : 0,
                    "texCoord" : 0
                },
                "metallicFactor" : 0,
                "roughnessFactor" : 0.5
            }
        }
    ],
    "meshes" : [
        {
            "name" : "Torus",
            "primitives" : [
                {
                    "attributes" : {
                        "POSITION" : 0,
                        "NORMAL" : 1,
                        "TEXCOORD_0" : 2
                    },
                    "indices" : 3,
                    "material" : 0
                }
            ]
        },
        {
            "name" : "Torus.001",
            "primitives" : [
                {
                    "attributes" : {
                        "POSITION" : 4,
                        "NORMAL" : 5,
                        "TEXCOORD_0" : 6
                    },
                    "indices" : 7,
                    "material" : 0
                }
            ]
        }
    ],
    "textures" : [
        {
            "source" : 0
        }
    ],
    "images" : [
        {
            "bufferView" : 4,
            "mimeType" : "image/jpeg",
            "name" : "brass"
        }
    ],
    "accessors" : [
        {
            "bufferView" : 0,
            "componentType" : 5126,
            "count" : 434,
            "max" : [
                1.25,
                0.25,
                1.1888206005096436
            ],
            "min" : [
                -3.899125337600708,
                -0.25,
                -1.1888206005096436
            ],
            "type" : "VEC3"
        },
        {
            "bufferView" : 1,
            "componentType" : 5126,
            "count" : 434,
            "type" : "VEC3"
        },
        {
            "bufferView" : 2,
            "componentType" : 5126,
            "count" : 434,
            "type" : "VEC2"
        },
        {
            "bufferView" : 3,
            "componentType" : 5123,
            "count" : 792,
            "type" : "SCALAR"
        },
        {
            "bufferView" : 5,
            "componentType" : 5126,
            "count" : 128,
            "max" : [
                -3.8720390796661377,
                0.5,
                0.47552821040153503
            ],
            "min" : [
                -5.10712194442749,
                -0.4045085906982422,
                -0.4755282402038574
            ],
            "type" : "VEC3"
        },
        {
            "bufferView" : 6,
            "componentType" : 5126,
            "count" : 128,
            "type" : "VEC3"
        },
        {
            "bufferView" : 7,
            "componentType" : 5126,
            "count" : 128,
            "type" : "VEC2"
        },
        {
            "bufferView" : 8,
            "componentType" : 5123,
            "count" : 198,
            "type" : "SCALAR"
        }
    ],
    "bufferViews" : [
        {
            "buffer" : 0,
            "byteLength" : 5208,
            "byteOffset" : 0
        },
        {
            "buffer" : 0,
            "byteLength" : 5208,
            "byteOffset" : 5208
        },
        {
            "buffer" : 0,
            "byteLength" : 3472,
            "byteOffset" : 10416
        },
        {
            "buffer" : 0,
            "byteLength" : 1584,
            "byteOffset" : 13888
        },
        {
            "buffer" : 0,
            "byteLength" : 32457,
            "byteOffset" : 15472
        },
        {
            "buffer" : 0,
            "byteLength" : 1536,
            "byteOffset" : 47932
        },
        {
            "buffer" : 0,
            "byteLength" : 1536,
            "byteOffset" : 49468
        },
        {
            "buffer" : 0,
            "byteLength" : 1024,
            "byteOffset" : 51004
        },
        {
            "buffer" : 0,
            "byteLength" : 396,
            "byteOffset" : 52028
        }
    ],
    "buffers" : [
        {
            "byteLength" : 52424,
            "uri" : "data:application/octet-stream;base64,"
        }
    ]
}
